<svg version="1.2" xmlns="http://www.w3.org/2000/svg" viewBox="0 0 573 576" width="573" height="576">
	<title>profile</title>
	<defs>
		<clipPath clipPathUnits="userSpaceOnUse" id="cp1">
			<path d="m5.09 7.09h495.91v530.91h-495.91z"/>
		</clipPath>
		<clipPath clipPathUnits="userSpaceOnUse" id="cp2">
			<path d="m250 7.09h316.57v505.91h-316.57z"/>
		</clipPath>
		<clipPath clipPathUnits="userSpaceOnUse" id="cp3">
			<path d="m81 373h391v195.57h-391z"/>
		</clipPath>
		<clipPath clipPathUnits="userSpaceOnUse" id="cp4">
			<path d="m250 411h240v157.57h-240z"/>
		</clipPath>
		<clipPath clipPathUnits="userSpaceOnUse" id="cp5">
			<path d="m250 450h72v118.57h-72z"/>
		</clipPath>
		<clipPath clipPathUnits="userSpaceOnUse" id="cp6">
			<path d="m272 552h36v16.57h-36z"/>
		</clipPath>
		<clipPath clipPathUnits="userSpaceOnUse" id="cp7">
			<path d="m178 353h104v215.57h-104z"/>
		</clipPath>
		<clipPath clipPathUnits="userSpaceOnUse" id="cp8">
			<path d="m289 353h104v215.57h-104z"/>
		</clipPath>
	</defs>
	<style>
		.s0 { fill: #cbe2ff } 
		.s1 { fill: #bed8fb } 
		.s2 { fill: #365e7d } 
		.s3 { fill: #2b4d66 } 
		.s4 { fill: #4a80aa } 
		.s5 { fill: #407093 } 
		.s6 { fill: #e4f6ff } 
		.s7 { fill: #e28086 } 
		.s8 { fill: #dd636e } 
		.s9 { fill: #ffddce } 
		.s10 { fill: #ffcbbe } 
		.s11 { fill: #f4fbff } 
	</style>
	<g id="Clip-Path" clip-path="url(#cp1)">
		<g>
			<path class="s0" d="m285.8 537.1l111.2-28.1c63.5-52.7 104-132.2 104-221.2 0-137.2-96.2-252-224.8-280.6-150.6 5.2-271.1 128.9-271.1 280.6 0 78 31.8 148.5 83.1 199.4z"/>
		</g>
	</g>
	<g id="Clip-Path" clip-path="url(#cp2)">
		<g>
			<path class="s1" d="m495.2 287.8c0 92-44.3 173.7-112.8 224.9l100.9-25.4c51.5-51 83.3-121.5 83.3-199.5 0-155-125.7-280.7-280.8-280.7-12 0-24 0.8-35.6 2.2 138.2 17.5 245 135.5 245 278.5z"/>
		</g>
	</g>
	<path class="s2" d="m355.6 113.5c0-14.4-11.7-26-26-26h-89.5c-33 0-59.8 26.7-59.8 59.7v66.4h210.8v-65.4c0-14.3-11.6-26-26-26h-0.9c-4.7-0.1-8.6-3.9-8.6-8.7z"/>
	<path class="s3" d="m365.2 122.1h-0.9c-4.8 0-8.7-3.9-8.7-8.7 0-14.4-11.7-26-26-26h-9.8v126.1h71.4v-65.4c0-14.3-11.6-26-26-26z"/>
	<g id="Clip-Path" clip-path="url(#cp3)">
		<g>
			<path class="s4" d="m471.2 415.5c-6.9-6.8-15.4-12.1-25-15l-76.7-24.3-83.7-2.9-83.8 2.9-76.6 24.3c-25.9 8.1-43.5 32.1-43.5 59.3v20.9c49.1 51.9 117.8 85.1 194.3 87.6 85.6-18.9 156.9-76.2 195-152.8z"/>
		</g>
	</g>
	<g id="Clip-Path" clip-path="url(#cp4)">
		<g>
			<path class="s5" d="m489.8 480.7v-20.9c0-19.2-8.8-36.9-23.1-48.5-40.7 82.9-121.1 142.9-216.4 155 11.5 1.4 23.2 2.2 35.1 2.3 11.4 0 22.7-0.7 33.8-2 66.9-7.9 126.6-39.4 170.6-85.9z"/>
		</g>
	</g>
	<path class="s6" d="m292.2 564.4c17-33.8 61.2-129.5 48.6-189.3l-55-21.4-54.9 21.4c-13.1 61.7 34.4 161.6 50.1 192.3q5.6-1.5 11.2-3z"/>
	<g id="Clip-Path" clip-path="url(#cp5)">
		<g>
			<path class="s7" d="m321.1 537.6l-22.2-87.6h-26.1l-22.3 87.4 27.5 30.6c7.1-1.6 13.9-3.4 20.7-5.6z"/>
		</g>
	</g>
	<g id="Clip-Path" clip-path="url(#cp6)">
		<g>
			<path class="s8" d="m278.5 568.5c2.3 0.1 4.6 0.1 6.8 0.1 2.6 0 5.2 0 7.9-0.1l14.1-15.7c-11.2 3.9-22.6 7.1-34.3 9.6z"/>
		</g>
	</g>
	<path class="s9" d="m332.8 367v-49.5h-93.9v49.5c0 25.9 46.9 54.2 46.9 54.2 0 0 47-28.3 47-54.2z"/>
	<path class="s9" d="m391.2 204.8h-18c-9.9 0-18.1-8.1-18.1-18.1v-9.9c0-13-12.7-22.1-25-18-28.7 9.5-59.8 9.5-88.6 0-12.4-4.1-25 5.1-25 18v9.9c0 10-8.1 18.1-18.1 18.1h-18v29.5c0 7.6 6.2 13.7 13.7 13.7 2.5 0 4.3 1.9 4.5 4.3 2.9 45.7 40.8 81.9 87.3 81.9 46.5 0 84.4-36.2 87.3-81.9 0.1-2.4 2.1-4.3 4.5-4.3 7.6 0 13.7-6.1 13.7-13.7z"/>
	<path class="s10" d="m373.2 204.8c-9.9 0-18.1-8.1-18.1-18.1v-9.9c0-13-12.7-22.1-25-18-3.4 1.1-6.8 2-10.3 2.9v97.6c-0.4 31.7-17.9 59.3-43.5 74.4 3.2 0.3 6.3 0.5 9.5 0.5 46.4 0 84.4-36.2 87.3-81.9 0.1-2.4 2.1-4.3 4.5-4.3 7.6 0 13.7-6.1 13.7-13.7v-29.5z"/>
	<path class="s11" d="m238.9 353.7l-36.9 30 38.6 47.7c4.8 4.6 12.1 4.8 17.2 0.6l29-24.2z"/>
	<path class="s11" d="m332.8 353.7l-46 54.1 27.3 23.4c5.1 4.2 12.4 4 17.2-0.6l38.3-46.9z"/>
	<g id="Clip-Path" clip-path="url(#cp7)">
		<g>
			<path class="s2" d="m238.9 353.7l-54.1 26.6c-4.1 1.9-5.8 7-3.6 11.1l10.5 20.5c2.8 5.2 1.8 11.8-2.5 16-2.2 2.2-4.5 4.5-6.6 6.5-3.6 3.7-4.9 9.2-3.4 14 12.9 38.9 74.3 98.5 97.5 120.1 1.6 0 3.2 0.1 4.7 0.1-16.7-32.8-76.5-157.6-42.5-214.9z"/>
		</g>
	</g>
	<g id="Clip-Path" clip-path="url(#cp8)">
		<g>
			<path class="s2" d="m382.3 427.9c-4.2-4.3-5.2-10.8-2.5-16l10.5-20.5c2.1-4.1 0.5-9.2-3.6-11.1l-54-26.6c33.9 57.4-25.8 182-42.7 214.9 1.5 0 3.2-0.1 4.7-0.1 23.4-21.6 84.7-81.1 97.5-120 1.6-4.9 0.3-10.3-3.4-13.9-1.9-2.2-4.3-4.5-6.5-6.7z"/>
		</g>
	</g>
	<path class="s8" d="m286.8 407.7l-28.6 23.9 14.6 18.4h26.1l14.6-19.5z"/>
</svg>