<svg xmlns="http://www.w3.org/2000/svg" xmlns:xlink="http://www.w3.org/1999/xlink" width="1366" zoomAndPan="magnify" viewBox="0 0 1024.5 576" height="768" preserveAspectRatio="xMidYMid meet" version="1.0"><defs><clipPath id="068670a43a"><path d="M 231.089844 7.089844 L 727 7.089844 L 727 538 L 231.089844 538 Z M 231.089844 7.089844 " clip-rule="nonzero"/></clipPath><clipPath id="5fcbd507cd"><path d="M 476 7.089844 L 792.566406 7.089844 L 792.566406 513 L 476 513 Z M 476 7.089844 " clip-rule="nonzero"/></clipPath><clipPath id="7ed192de02"><path d="M 307 373 L 698 373 L 698 568.566406 L 307 568.566406 Z M 307 373 " clip-rule="nonzero"/></clipPath><clipPath id="97cb9bc46a"><path d="M 476 411 L 716 411 L 716 568.566406 L 476 568.566406 Z M 476 411 " clip-rule="nonzero"/></clipPath><clipPath id="b35c3ff0c8"><path d="M 476 450 L 548 450 L 548 568.566406 L 476 568.566406 Z M 476 450 " clip-rule="nonzero"/></clipPath><clipPath id="a8483de6f4"><path d="M 498 552 L 534 552 L 534 568.566406 L 498 568.566406 Z M 498 552 " clip-rule="nonzero"/></clipPath><clipPath id="020b91e5dd"><path d="M 404 353 L 508 353 L 508 568.566406 L 404 568.566406 Z M 404 353 " clip-rule="nonzero"/></clipPath><clipPath id="4333cacea6"><path d="M 515 353 L 619 353 L 619 568.566406 L 515 568.566406 Z M 515 353 " clip-rule="nonzero"/></clipPath></defs><g clip-path="url(#068670a43a)"><path fill="#cbe2ff" d="M 511.828125 537.09375 L 623.027344 509.019531 C 686.523438 456.269531 726.988281 376.765625 726.988281 287.828125 C 726.988281 150.640625 630.8125 35.820312 502.175781 7.199219 C 351.609375 12.355469 231.089844 136.054688 231.089844 287.828125 C 231.089844 365.796875 262.890625 436.3125 314.214844 487.195312 Z M 511.828125 537.09375 " fill-opacity="1" fill-rule="nonzero"/></g><g clip-path="url(#5fcbd507cd)"><path fill="#bed8fb" d="M 721.175781 287.828125 C 721.175781 379.835938 676.871094 461.535156 608.441406 512.746094 L 709.332031 487.304688 C 760.761719 436.3125 792.566406 365.796875 792.566406 287.828125 C 792.566406 132.765625 666.890625 7.089844 511.828125 7.089844 C 499.765625 7.089844 487.8125 7.859375 476.1875 9.285156 C 614.363281 26.828125 721.175781 144.828125 721.175781 287.828125 Z M 721.175781 287.828125 " fill-opacity="1" fill-rule="nonzero"/></g><path fill="#365e7d" d="M 581.574219 113.464844 C 581.574219 99.097656 569.949219 87.472656 555.582031 87.472656 L 466.097656 87.472656 C 433.089844 87.472656 406.332031 114.230469 406.332031 147.238281 L 406.332031 213.585938 L 617.105469 213.585938 L 617.105469 148.226562 C 617.105469 133.859375 605.480469 122.238281 591.113281 122.238281 L 590.238281 122.238281 C 585.523438 122.125 581.574219 118.289062 581.574219 113.464844 Z M 581.574219 113.464844 " fill-opacity="1" fill-rule="nonzero"/><path fill="#2b4d66" d="M 591.222656 122.125 L 590.347656 122.125 C 585.523438 122.125 581.574219 118.179688 581.574219 113.355469 C 581.574219 98.988281 569.949219 87.363281 555.582031 87.363281 L 545.824219 87.363281 L 545.824219 213.476562 L 617.214844 213.476562 L 617.214844 148.117188 C 617.214844 133.75 605.589844 122.125 591.222656 122.125 Z M 591.222656 122.125 " fill-opacity="1" fill-rule="nonzero"/><g clip-path="url(#7ed192de02)"><path fill="#4a80aa" d="M 697.160156 415.476562 C 690.25 408.675781 681.804688 403.414062 672.15625 400.453125 L 595.5 376.214844 L 511.828125 373.253906 L 428.046875 376.214844 L 351.390625 400.453125 C 325.511719 408.566406 307.855469 432.582031 307.855469 459.78125 L 307.855469 480.726562 C 356.984375 532.597656 425.742188 565.824219 502.175781 568.347656 C 587.824219 549.375 659.105469 492.128906 697.160156 415.476562 Z M 697.160156 415.476562 " fill-opacity="1" fill-rule="nonzero"/></g><g clip-path="url(#97cb9bc46a)"><path fill="#407093" d="M 715.800781 480.726562 L 715.800781 459.78125 C 715.800781 440.589844 707.027344 422.933594 692.664062 411.308594 C 651.976562 494.214844 571.59375 554.199219 476.296875 566.261719 C 487.8125 567.6875 499.546875 568.457031 511.390625 568.566406 C 522.792969 568.566406 534.089844 567.90625 545.164062 566.59375 C 612.058594 558.695312 671.828125 527.222656 715.800781 480.726562 Z M 715.800781 480.726562 " fill-opacity="1" fill-rule="nonzero"/></g><path fill="#e4f6ff" d="M 518.1875 564.398438 C 535.1875 530.621094 579.378906 434.886719 566.769531 375.121094 L 511.828125 353.734375 L 456.886719 375.121094 C 443.835938 436.75 491.320312 536.652344 507.003906 567.359375 C 510.730469 566.371094 514.460938 565.386719 518.1875 564.398438 Z M 518.1875 564.398438 " fill-opacity="1" fill-rule="nonzero"/><g clip-path="url(#b35c3ff0c8)"><path fill="#e28086" d="M 547.140625 537.640625 L 524.878906 450.019531 L 498.777344 450.019531 L 476.515625 537.421875 L 504.042969 568.015625 C 511.058594 566.371094 517.859375 564.617188 524.660156 562.425781 Z M 547.140625 537.640625 " fill-opacity="1" fill-rule="nonzero"/></g><g clip-path="url(#a8483de6f4)"><path fill="#dd636e" d="M 504.480469 568.457031 C 506.785156 568.566406 509.085938 568.566406 511.28125 568.566406 C 513.910156 568.566406 516.542969 568.566406 519.175781 568.457031 L 533.320312 552.773438 C 522.136719 556.722656 510.730469 559.902344 498.996094 562.425781 Z M 504.480469 568.457031 " fill-opacity="1" fill-rule="nonzero"/></g><path fill="#ffddce" d="M 558.765625 367.003906 L 558.765625 317.546875 L 464.890625 317.546875 L 464.890625 367.003906 C 464.890625 392.886719 511.828125 421.179688 511.828125 421.179688 C 511.828125 421.179688 558.765625 392.886719 558.765625 367.003906 Z M 558.765625 367.003906 " fill-opacity="1" fill-rule="nonzero"/><path fill="#ffddce" d="M 617.214844 204.8125 L 599.230469 204.8125 C 589.25 204.8125 581.136719 196.699219 581.136719 186.71875 L 581.136719 176.847656 C 581.136719 163.796875 568.414062 154.695312 556.132812 158.753906 C 527.398438 168.296875 496.253906 168.296875 467.523438 158.753906 C 455.132812 154.695312 442.519531 163.910156 442.519531 176.847656 L 442.519531 186.71875 C 442.519531 196.699219 434.40625 204.8125 424.425781 204.8125 L 406.441406 204.8125 L 406.441406 234.3125 C 406.441406 241.878906 412.582031 248.019531 420.148438 248.019531 C 422.5625 248.019531 424.425781 249.882812 424.644531 252.296875 C 427.496094 298.027344 465.441406 334.214844 511.9375 334.214844 C 558.433594 334.214844 596.269531 298.027344 599.230469 252.296875 C 599.339844 249.882812 601.3125 248.019531 603.726562 248.019531 C 611.292969 248.019531 617.433594 241.878906 617.433594 234.3125 Z M 617.214844 204.8125 " fill-opacity="1" fill-rule="nonzero"/><path fill="#ffcbbe" d="M 599.230469 204.8125 C 589.25 204.8125 581.136719 196.699219 581.136719 186.71875 L 581.136719 176.847656 C 581.136719 163.796875 568.414062 154.695312 556.132812 158.753906 C 552.730469 159.851562 549.332031 160.835938 545.824219 161.714844 L 545.824219 259.316406 C 545.386719 291.007812 527.949219 318.644531 502.289062 333.667969 C 505.46875 333.996094 508.648438 334.214844 511.828125 334.214844 C 558.214844 334.214844 596.160156 298.027344 599.121094 252.296875 C 599.230469 249.882812 601.203125 248.019531 603.617188 248.019531 C 611.183594 248.019531 617.324219 241.878906 617.324219 234.3125 L 617.324219 204.8125 Z M 599.230469 204.8125 " fill-opacity="1" fill-rule="nonzero"/><path fill="#f4fbff" d="M 464.890625 353.734375 L 428.046875 383.671875 L 466.648438 431.378906 C 471.363281 435.984375 478.710938 436.203125 483.753906 432.035156 L 512.816406 407.800781 Z M 464.890625 353.734375 " fill-opacity="1" fill-rule="nonzero"/><path fill="#f4fbff" d="M 558.765625 353.734375 L 512.816406 407.800781 L 540.121094 431.15625 C 545.164062 435.433594 552.511719 435.214844 557.339844 430.609375 L 595.609375 383.671875 Z M 558.765625 353.734375 " fill-opacity="1" fill-rule="nonzero"/><g clip-path="url(#020b91e5dd)"><path fill="#365e7d" d="M 464.890625 353.734375 L 410.828125 380.273438 C 406.660156 382.246094 405.015625 387.292969 407.210938 391.351562 L 417.738281 411.855469 C 420.476562 417.121094 419.492188 423.699219 415.214844 427.867188 C 413.019531 430.0625 410.71875 432.363281 408.636719 434.449219 C 405.015625 438.066406 403.699219 443.550781 405.234375 448.375 C 418.066406 487.304688 479.476562 546.851562 502.726562 568.457031 C 504.261719 568.457031 505.90625 568.566406 507.441406 568.566406 C 490.664062 535.777344 430.898438 410.980469 464.890625 353.734375 Z M 464.890625 353.734375 " fill-opacity="1" fill-rule="nonzero"/></g><g clip-path="url(#4333cacea6)"><path fill="#365e7d" d="M 608.332031 427.867188 C 604.054688 423.589844 603.066406 417.121094 605.808594 411.855469 L 616.335938 391.351562 C 618.421875 387.292969 616.777344 382.246094 612.71875 380.273438 L 558.652344 353.734375 C 592.648438 411.089844 532.882812 535.667969 515.996094 568.566406 C 517.53125 568.566406 519.175781 568.457031 520.710938 568.457031 C 544.070312 546.851562 605.371094 487.414062 618.203125 448.484375 C 619.847656 443.550781 618.53125 438.175781 614.800781 434.558594 C 612.9375 432.363281 610.523438 430.0625 608.332031 427.867188 Z M 608.332031 427.867188 " fill-opacity="1" fill-rule="nonzero"/></g><path fill="#dd636e" d="M 512.816406 407.691406 L 484.191406 431.597656 L 498.777344 450.019531 L 524.878906 450.019531 L 539.464844 430.5 Z M 512.816406 407.691406 " fill-opacity="1" fill-rule="nonzero"/></svg>